<svg width="107" height="107" viewBox="0 0 107 107" fill="none" xmlns="http://www.w3.org/2000/svg">
<g filter="url(#filter0_d_15_8)">
<rect x="30" y="15" width="47" height="47" fill="#CF3034"/>
</g>
<path fill-rule="evenodd" clip-rule="evenodd" d="M59.8039 31.5851C59.9403 31.4483 60.1024 31.3398 60.2808 31.2657C60.4593 31.1917 60.6506 31.1536 60.8438 31.1536C61.0369 31.1536 61.2282 31.1917 61.4067 31.2657C61.5851 31.3398 61.7472 31.4483 61.8836 31.5851L70.6961 40.3976C70.8329 40.534 70.9414 40.6961 71.0155 40.8745C71.0895 41.053 71.1276 41.2442 71.1276 41.4374C71.1276 41.6306 71.0895 41.8219 71.0155 42.0004C70.9414 42.1788 70.8329 42.3409 70.6961 42.4773L61.8836 51.2898C61.6078 51.5656 61.2338 51.7205 60.8438 51.7205C60.4537 51.7205 60.0797 51.5656 59.8039 51.2898C59.5281 51.014 59.3731 50.64 59.3731 50.2499C59.3731 49.8599 59.5281 49.4859 59.8039 49.2101L67.5794 41.4374L59.8039 33.6648C59.6671 33.5284 59.5586 33.3663 59.4845 33.1879C59.4105 33.0094 59.3724 32.8181 59.3724 32.6249C59.3724 32.4317 59.4105 32.2405 59.4845 32.062C59.5586 31.8836 59.6671 31.7215 59.8039 31.5851Z" fill="white"/>
<path fill-rule="evenodd" clip-rule="evenodd" d="M38.8125 22.3438C38.423 22.3438 38.0494 22.4985 37.7739 22.7739C37.4985 23.0494 37.3438 23.423 37.3438 23.8125V35.5625C37.3438 37.5102 38.1175 39.3781 39.4947 40.7553C40.8719 42.1325 42.7398 42.9062 44.6875 42.9062H69.6562C70.0458 42.9062 70.4194 42.7515 70.6948 42.4761C70.9703 42.2006 71.125 41.827 71.125 41.4375C71.125 41.048 70.9703 40.6744 70.6948 40.3989C70.4194 40.1235 70.0458 39.9688 69.6562 39.9688H44.6875C43.5189 39.9688 42.3981 39.5045 41.5718 38.6782C40.7455 37.8519 40.2812 36.7311 40.2812 35.5625V23.8125C40.2812 23.423 40.1265 23.0494 39.8511 22.7739C39.5756 22.4985 39.202 22.3438 38.8125 22.3438Z" fill="white"/>
<defs>
<filter id="filter0_d_15_8" x="0" y="0" width="107" height="107" filterUnits="userSpaceOnUse" color-interpolation-filters="sRGB">
<feFlood flood-opacity="0" result="BackgroundImageFix"/>
<feColorMatrix in="SourceAlpha" type="matrix" values="0 0 0 0 0 0 0 0 0 0 0 0 0 0 0 0 0 0 127 0" result="hardAlpha"/>
<feOffset dy="15"/>
<feGaussianBlur stdDeviation="15"/>
<feColorMatrix type="matrix" values="0 0 0 0 0.850208 0 0 0 0 0.869137 0 0 0 0 0.883333 0 0 0 0.24 0"/>
<feBlend mode="normal" in2="BackgroundImageFix" result="effect1_dropShadow_15_8"/>
<feBlend mode="normal" in="SourceGraphic" in2="effect1_dropShadow_15_8" result="shape"/>
</filter>
</defs>
</svg>
